<svg width="109" height="96" viewBox="0 0 109 96" fill="none" xmlns="http://www.w3.org/2000/svg">
<path d="M0 83.4446L3.69254 76.0689H6.16006L7.72659 83.4435H5.72763L5.43041 82.0529H2.851L2.15165 83.4435L0 83.4446ZM3.59113 80.4141H5.14834L4.81033 78.6914C4.77652 78.5201 4.75205 78.3674 4.73456 78.2333C4.71708 78.0993 4.70775 77.9734 4.70426 77.8557C4.63432 78.0573 4.56905 78.2345 4.51077 78.3872C4.45249 78.5399 4.40587 78.6529 4.37207 78.7275L3.59113 80.4141Z" fill="#A2E00F"/>
<path d="M9.16136 83.4446L10.3269 76.07H12.3084L11.4167 81.6811H13.854L13.5777 83.4446H9.16136Z" fill="#A2E00F"/>
<path d="M19.8183 79.6064C20.2845 79.6942 20.6428 79.8811 20.893 80.167C21.1487 80.4792 21.2806 80.8746 21.2636 81.2778C21.2672 81.6407 21.1816 81.999 21.0142 82.321C20.8581 82.6295 20.6202 82.8892 20.3265 83.0716C20.0781 83.218 19.8039 83.3153 19.5188 83.3584C18.9817 83.4287 18.4401 83.4575 17.8986 83.4446H15.4661L16.6398 76.0689H18.3124C18.9534 76.0689 19.4119 76.084 19.6878 76.1143C19.9242 76.1354 20.1564 76.1896 20.3778 76.2752C20.6779 76.3928 20.9327 76.6031 21.1051 76.8754C21.2858 77.1577 21.3794 77.4868 21.3743 77.8219C21.3983 78.2632 21.2491 78.6965 20.9585 79.0296C20.6679 79.3626 20.2588 79.5691 19.8183 79.6052V79.6064ZM17.6119 81.9981H17.845C18.4425 81.9981 18.8396 81.9259 19.0362 81.7813C19.2332 81.638 19.3311 81.3839 19.3311 81.0214C19.3311 80.7533 19.2472 80.5552 19.0793 80.4468C18.9115 80.3384 18.6271 80.2754 18.2285 80.2754H17.8788L17.6119 81.9981ZM18.0956 78.9257H18.2623C18.7355 78.9257 19.0618 78.8628 19.2413 78.7369C19.4208 78.611 19.5106 78.3989 19.5106 78.1005C19.5171 78.0105 19.5004 77.9203 19.4621 77.8387C19.4237 77.757 19.3649 77.6866 19.2915 77.6342C19.1462 77.5356 18.913 77.4858 18.5921 77.485H18.3124L18.0956 78.9257Z" fill="#A2E00F"/>
<path d="M25.181 81.8023H27.4632L27.2056 83.4446H22.9548L24.1203 76.07H28.3712L28.1043 77.7729H25.8209L25.6344 78.9828H27.75L27.5028 80.5843H25.378L25.181 81.8023Z" fill="#A2E00F"/>
<path d="M31.5673 83.4446H29.6079L30.7735 76.07H32.7375C33.1782 76.062 33.619 76.083 34.0569 76.133C34.3165 76.1661 34.5696 76.2385 34.8076 76.3474C35.1577 76.5022 35.4528 76.7594 35.6538 77.0852C35.8536 77.4316 35.9533 77.8267 35.9417 78.2263C35.9592 78.7879 35.7639 79.3353 35.395 79.7591C35.0306 80.1709 34.5294 80.4289 33.8914 80.533L35.6841 83.447H33.4357L32.0102 80.6309L31.5673 83.4446ZM32.1967 79.4397H32.8156C33.2061 79.4397 33.5045 79.3511 33.7131 79.1728C33.8195 79.076 33.9029 78.9565 33.957 78.8231C34.011 78.6898 34.0344 78.546 34.0255 78.4024C34.0255 78.0865 33.9276 77.858 33.7329 77.7147C33.5383 77.5713 33.2259 77.5002 32.8004 77.5002H32.5079L32.1967 79.4397Z" fill="#A2E00F"/>
<path d="M38.492 83.4446L39.3883 77.7823H37.7355L38.0176 76.0689H43.2265L42.941 77.7823H41.3674L40.4711 83.4446H38.492Z" fill="#A2E00F"/>
<path d="M48.0812 83.6451C47.5931 83.6512 47.1074 83.578 46.6428 83.4283C46.2202 83.2893 45.829 83.0687 45.4912 82.7791C45.1347 82.4639 44.8528 82.0733 44.666 81.6357C44.4673 81.1799 44.3661 80.6876 44.3688 80.1904C44.3642 79.6648 44.4502 79.1424 44.6229 78.646C44.7917 78.1684 45.0487 77.7268 45.3805 77.344C45.7714 76.8828 46.2637 76.5182 46.8188 76.2787C47.3999 76.0288 48.0268 75.903 48.6593 75.9092C49.7673 75.9092 50.6633 76.2282 51.3471 76.8661C52.0309 77.5041 52.3724 78.3332 52.3716 79.3535C52.3754 79.8794 52.2878 80.4019 52.1129 80.8979C51.9425 81.375 51.6852 81.8164 51.3541 82.1998C50.9613 82.6632 50.4688 83.0318 49.9134 83.278C49.3353 83.5277 48.7109 83.6528 48.0812 83.6451ZM48.5334 77.7123C48.249 77.7055 47.9665 77.7599 47.7051 77.8719C47.4436 77.9839 47.2093 78.1509 47.0182 78.3616C46.6106 78.7976 46.3915 79.3769 46.4086 79.9736C46.4086 80.5416 46.5706 80.995 46.8946 81.3338C47.2186 81.6726 47.6511 81.842 48.1919 81.842C48.4775 81.8453 48.7605 81.7865 49.0211 81.6695C49.2818 81.5526 49.5139 81.3804 49.7013 81.1648C50.1128 80.7198 50.3348 80.1319 50.3202 79.526C50.329 79.2854 50.289 79.0455 50.2026 78.8208C50.1163 78.596 49.9854 78.3911 49.8179 78.2182C49.6508 78.0495 49.4506 77.9171 49.23 77.8292C49.0094 77.7414 48.7731 77.7 48.5357 77.7077L48.5334 77.7123Z" fill="#A2E00F"/>
<path d="M58.2333 83.4446L59.4058 76.0689H61.4316C61.8539 76.0611 62.2761 76.0837 62.6951 76.1365C62.951 76.175 63.1992 76.2537 63.4306 76.3696C63.7831 76.5402 64.076 76.8132 64.271 77.1529C64.4658 77.5198 64.5622 77.9311 64.5507 78.3464C64.5546 78.7916 64.4519 79.2312 64.2511 79.6285C64.069 80.0009 63.7864 80.315 63.4352 80.5354C63.2147 80.6661 62.9722 80.7558 62.7196 80.7999C62.2912 80.862 61.8585 80.8882 61.4258 80.878H60.5994L60.1868 83.4423L58.2333 83.4446ZM60.8523 79.3092H61.0376C61.6764 79.3092 62.108 79.242 62.3326 79.1075C62.5572 78.9731 62.6698 78.7447 62.6706 78.4222C62.6792 78.306 62.6568 78.1895 62.6058 78.0847C62.5549 77.9799 62.4771 77.8905 62.3804 77.8254C62.1869 77.6995 61.8839 77.6366 61.4712 77.6366H61.1216L60.8523 79.3092Z" fill="#A2E00F"/>
<path d="M64.362 83.4446L68.0533 76.0689H70.522L72.0885 83.4435H70.0884L69.7912 82.0529H67.213L66.5136 83.4435L64.362 83.4446ZM67.9531 80.4141H69.5091L69.1723 78.6914C69.1385 78.5201 69.1128 78.3674 69.0965 78.2333C69.0801 78.108 69.07 77.982 69.0662 77.8557C68.9951 78.0573 68.931 78.2345 68.8716 78.3872C68.8121 78.5399 68.7667 78.6529 68.734 78.7275L67.9531 80.4141Z" fill="#A2E00F"/>
<path d="M73.5129 83.4446L74.6656 76.0689H75.9349C76.6115 76.0573 77.2882 76.0834 77.9619 76.147C78.3029 76.1813 78.6357 76.2723 78.9468 76.4162C79.481 76.6788 79.919 77.1029 80.1986 77.6284C80.4985 78.2146 80.6468 78.8666 80.6299 79.5248C80.6425 80.1661 80.509 80.8019 80.2394 81.3839C79.9734 81.9265 79.572 82.3914 79.0738 82.7336C78.6762 83.0012 78.2292 83.1871 77.7591 83.2803C77.2517 83.3898 76.4039 83.4446 75.2158 83.4446H73.5129ZM75.7485 81.8023C75.886 81.8117 75.9886 81.8187 76.0538 81.8198H76.2368C77.0255 81.8198 77.625 81.6217 78.0353 81.2254C78.4456 80.8291 78.6503 80.2463 78.6496 79.477C78.6496 78.8554 78.5004 78.4012 78.202 78.1145C77.9036 77.8277 77.4199 77.6898 76.7508 77.7007H76.3779L75.7485 81.8023Z" fill="#A2E00F"/>
<path d="M84.3002 83.4446H82.3374L83.503 76.0689H85.4681C85.9088 76.0609 86.3496 76.0819 86.7876 76.1318C87.0471 76.1653 87.3001 76.2376 87.5382 76.3463C87.8879 76.5017 88.1827 76.7588 88.3844 77.0841C88.5833 77.4308 88.6826 77.8257 88.6711 78.2252C88.6892 78.7868 88.4939 79.3345 88.1245 79.7579C87.7593 80.1698 87.2581 80.4277 86.6209 80.5319L88.4135 83.4458H86.1686L84.7431 80.6298L84.3002 83.4446ZM84.9296 79.4397H85.5497C85.9382 79.4397 86.237 79.3508 86.446 79.1728C86.5525 79.076 86.6358 78.9565 86.6899 78.8231C86.744 78.6898 86.7674 78.546 86.7584 78.4024C86.7584 78.0865 86.6605 77.858 86.4659 77.7147C86.2712 77.5713 85.9588 77.5002 85.5334 77.5002H85.242L84.9296 79.4397Z" fill="#A2E00F"/>
<path d="M94.1515 83.6451C93.6625 83.65 93.1759 83.5752 92.7109 83.4237C92.2883 83.2846 91.897 83.064 91.5593 82.7744C91.2027 82.4593 90.9208 82.0687 90.7341 81.631C90.5354 81.1752 90.4341 80.6829 90.4368 80.1857C90.4322 79.6601 90.5182 79.1377 90.6909 78.6413C90.8597 78.1637 91.1167 77.7221 91.4486 77.3394C91.8394 76.8781 92.3317 76.5135 92.8869 76.274C93.468 76.0242 94.0948 75.8983 94.7273 75.9045C95.8354 75.9045 96.7313 76.2235 97.4151 76.8615C98.0989 77.4994 98.4405 78.3285 98.4397 79.3488C98.446 79.8742 98.3612 80.3968 98.1891 80.8932C98.0187 81.3703 97.7614 81.8117 97.4303 82.1951C97.0377 82.6583 96.5456 83.0268 95.9908 83.2733C95.4107 83.5254 94.784 83.6521 94.1515 83.6451ZM94.6038 77.7123C94.3194 77.7054 94.0369 77.7599 93.7754 77.8719C93.514 77.9839 93.2797 78.1509 93.0885 78.3616C92.6809 78.7976 92.4619 79.3769 92.4789 79.9736C92.4789 80.5416 92.6409 80.995 92.965 81.3338C93.289 81.6726 93.7214 81.842 94.2623 81.842C94.547 81.8454 94.829 81.787 95.089 81.6709C95.349 81.5548 95.5807 81.3837 95.7682 81.1694C96.1801 80.7246 96.4025 80.1368 96.3883 79.5306C96.3966 79.2899 96.3562 79.0499 96.2695 78.8252C96.1828 78.6004 96.0515 78.3956 95.8836 78.2229C95.7171 78.0536 95.5176 77.9205 95.2974 77.8319C95.0772 77.7432 94.841 77.7009 94.6038 77.7077V77.7123ZM93.9848 75.3497L95.0875 73.5769H96.6493L94.7506 75.3451L93.9848 75.3497Z" fill="#A2E00F"/>
<path d="M100.113 83.4446L101.279 76.07H103.531L105.087 79.7113C105.101 79.7416 105.123 79.794 105.152 79.8675C105.303 80.2056 105.423 80.5567 105.51 80.9165V80.7312C105.51 80.5971 105.518 80.4491 105.533 80.2859C105.548 80.1227 105.571 79.9258 105.601 79.6938L106.167 76.0689H108.137L106.972 83.4435H104.808L103.156 79.6903C103.034 79.4183 102.943 79.1934 102.882 79.0154C102.82 78.8403 102.767 78.6621 102.723 78.4816V78.6879C102.723 78.822 102.716 78.9642 102.704 79.1133C102.693 79.2625 102.672 79.463 102.642 79.7101L102.083 83.44L100.113 83.4446Z" fill="#A2E00F"/>
<path d="M15.0838 95.7053L15.9801 90.0441H14.3273L14.6094 88.3307H19.8172L19.5351 90.0441H17.9593L17.0653 95.7053H15.0838Z" fill="#A2E00F"/>
<path d="M27.8398 95.7053H25.8805L27.0461 88.3307H29.0112C29.4519 88.3227 29.8927 88.3437 30.3307 88.3936C30.5901 88.4277 30.843 88.5 31.0813 88.6081C31.431 88.7636 31.7259 89.0206 31.9275 89.3459C32.1275 89.6923 32.2279 90.0872 32.2177 90.487C32.2355 91.049 32.0403 91.5969 31.6711 92.0209C31.3066 92.432 30.8054 92.6896 30.1675 92.7937L31.9613 95.7076H29.7082L28.2827 92.8916L27.8398 95.7053ZM28.4692 91.7004H29.0893C29.4779 91.7004 29.7766 91.6114 29.9857 91.4335C30.0924 91.3369 30.1759 91.2174 30.23 91.084C30.2841 90.9506 30.3073 90.8067 30.298 90.663C30.298 90.3472 30.2001 90.1187 30.0055 89.9753C29.8108 89.832 29.4984 89.762 29.073 89.762H28.7816L28.4692 91.7004Z" fill="#A2E00F"/>
<path d="M38.1037 95.7053L41.7951 88.3307H44.2637L45.8303 95.7053H43.8301L43.5329 94.3148H40.9593L40.26 95.7053H38.1037ZM41.6948 92.6748H43.2509L42.914 90.9521C42.8802 90.7807 42.8546 90.6281 42.8382 90.494C42.8219 90.36 42.8114 90.2341 42.8079 90.1164C42.738 90.318 42.6727 90.4952 42.6145 90.6479C42.5562 90.8006 42.5096 90.9136 42.4757 90.9882L41.6948 92.6748Z" fill="#A2E00F"/>
<path d="M52.4532 95.7053L53.6188 88.3307H55.6283L54.4627 95.7053H52.4532Z" fill="#A2E00F"/>
<path d="M62.2639 95.7053L63.4295 88.3307H65.6802L67.2374 91.9731C67.2502 92.0034 67.2723 92.0547 67.3027 92.1293C67.4532 92.4675 67.5729 92.8186 67.6605 93.1783V92.993C67.6605 92.8578 67.6675 92.7098 67.6826 92.5466C67.6978 92.3834 67.7199 92.1864 67.7502 91.9545L68.3202 88.333H70.2889L69.1233 95.7076H66.9576L65.306 91.9545C65.1848 91.6833 65.0931 91.4583 65.031 91.2796C64.9692 91.1024 64.9144 90.9241 64.8724 90.7458V90.9521C64.8724 91.0873 64.8724 91.2283 64.8549 91.3787C64.8375 91.529 64.8223 91.7283 64.792 91.9754L64.2325 95.7053H62.2639Z" fill="#A2E00F"/>
<path d="M79.1051 94.063H81.3873L81.1297 95.7053H76.8789L78.0444 88.3307H82.2953L82.0284 90.0336H79.745L79.5585 91.2376H81.674L81.4269 92.8391H79.3068L79.1051 94.063Z" fill="#A2E00F"/>
<path d="M90.6489 95.7053H88.6896L89.8551 88.3307H91.8191C92.2599 88.3227 92.7006 88.3437 93.1386 88.3937C93.3981 88.4274 93.6511 88.4997 93.8892 88.6081C94.2393 88.7629 94.5344 89.0201 94.7354 89.3459C94.9342 89.6927 95.0334 90.0875 95.0221 90.487C95.0398 91.0488 94.845 91.5965 94.4767 92.0209C94.1114 92.432 93.6102 92.6896 92.9731 92.7937L94.7657 95.7076H92.5173L91.0918 92.8916L90.6489 95.7053ZM91.2783 91.7004H91.8949C92.2842 91.7004 92.5838 91.6118 92.7912 91.4335C92.898 91.3369 92.9815 91.2174 93.0356 91.084C93.0897 90.9506 93.1129 90.8067 93.1036 90.663C93.1036 90.3472 93.0069 90.1187 92.8122 89.9753C92.6176 89.832 92.3052 89.762 91.8798 89.762H91.5872L91.2783 91.7004Z" fill="#A2E00F"/>
<path d="M97.7639 93.331L98.5215 91.3799H109L108.227 93.331H97.7639Z" fill="#A2E00F"/>
<path d="M0.367337 93.331L1.12379 91.3799H11.6035L10.8307 93.331H0.367337Z" fill="#A2E00F"/>
<path d="M61.3348 43.751H61.4303C61.4014 43.6314 61.3624 43.5144 61.3138 43.4013C61.3311 43.517 61.3381 43.6341 61.3348 43.751Z" fill="#A2E00F"/>
<path d="M49.1639 38.3777C47.2629 38.1866 45.2009 38.3777 43.4118 39.893L49.1639 38.3777Z" fill="#A2E00F"/>
<path d="M46.8178 25.4422C46.7852 25.4934 46.7514 25.5436 46.7164 25.5937C46.47 25.9538 46.183 26.2843 45.8609 26.5786C45.8525 26.5854 45.8447 26.5928 45.8375 26.6007C45.6171 26.7986 45.3834 26.9812 45.1382 27.1474C44.868 27.3314 44.5861 27.4976 44.2943 27.6451L44.1778 27.7034C43.9038 27.8336 43.6201 27.9424 43.3292 28.0286C43.2034 28.0646 43.0753 28.0922 42.9458 28.1113C43.3347 28.1642 43.7305 28.1296 44.1043 28.0099V28.0274C44.8585 27.6696 45.5287 27.4539 46.0742 27.0635C46.2561 26.911 46.4818 26.8203 46.7187 26.8047C46.9303 26.8154 47.1297 26.9067 47.2759 27.06C47.3388 27.1217 48.2981 28.0822 48.4939 28.7512L48.4881 28.7151C48.4881 28.6906 48.4776 28.6556 48.4694 28.6137C48.4588 28.5341 48.4557 28.4537 48.4601 28.3736C48.4773 28.0994 48.5135 27.8268 48.5685 27.5577V27.5402C48.5685 27.5208 48.572 27.5021 48.579 27.4842C48.5953 27.4062 48.607 27.3537 48.6081 27.3444C48.6571 27.2057 48.7142 27.06 48.783 26.9108C48.8296 26.8105 48.8809 26.7103 48.938 26.6089C49.0266 26.4514 49.1255 26.3 49.234 26.1555L49.8751 25.4328L49.6035 25.5785L49.487 25.6426L49.1723 25.8116L48.9893 25.9096C49.0909 25.5881 49.2575 25.2909 49.4788 25.0365C49.5487 24.9561 49.621 24.8804 49.6956 24.8034C49.9356 24.5797 50.1869 24.3684 50.4486 24.1705C50.5173 24.1169 50.5861 24.0621 50.6537 24.0062L51.3402 23.4234L50.2504 24.0411L48.9811 24.7102C48.9811 23.878 49.0382 23.0213 48.9811 22.1716C48.9741 22.0643 48.966 21.9559 48.9555 21.8487C48.931 21.5911 48.896 21.3323 48.8541 21.0759C48.7433 20.3987 48.5836 19.7273 48.4065 19.0665C48.2083 18.3205 47.9402 17.5943 47.6803 16.8635C47.6279 16.7143 47.5766 16.5651 47.5253 16.4148C47.5393 16.6537 47.5603 16.8903 47.5836 17.1258C47.664 17.9417 47.7829 18.7378 47.847 19.5374C47.854 19.6364 47.8622 19.7367 47.8691 19.8357C47.9705 21.5643 47.8691 23.2078 47.2607 24.6146C47.1351 24.9017 46.987 25.1784 46.8178 25.4422Z" fill="#A2E00F"/>
<path d="M82.8851 53.8589L79.6133 38.4488C80.8686 35.8612 81.3256 33.114 80.4584 30.256C79.8561 28.2608 78.5787 26.5372 76.8451 25.3804L71.452 0H53.4392L48.2827 10.3013C46.8141 12.9146 45.6846 13.8109 45.2615 14.0766V14.0603C44.8021 14.3763 44.2885 14.6051 43.7463 14.7352C42.231 15.0954 41.175 15.9497 40.6878 17.416C40.4885 18.0151 40.0945 18.1643 39.5875 18.3998C38.5175 18.8963 37.3251 19.3602 36.5337 20.1784C34.3109 22.4769 35.2387 26.8467 38.2704 28.5775C38.4954 28.7058 38.7226 28.827 38.9534 28.9459C40.1924 29.5823 41.5037 30.0951 42.773 30.6802C41.745 29.8725 40.6295 29.2314 39.4896 28.6358C39.387 28.5834 39.2879 28.5274 39.19 28.4715C37.3251 27.3957 36.2761 25.7545 36.0966 23.5971C35.9148 21.3825 37.6783 19.401 40.1132 18.901C41.4513 18.6235 42.6669 18.8706 43.6484 19.5653C44.3803 20.084 44.9818 20.8533 45.4049 21.8405C45.3035 21.3347 45.1962 20.8148 44.9561 20.3684C44.6939 19.8812 44.4083 19.4628 44.723 18.8823C44.9561 18.4522 45.1053 17.9778 45.293 17.5232L45.1834 17.4778C44.8279 18.0606 44.4724 18.6434 44.188 19.1096L43.9211 19.0222L40.647 17.9592C41.3207 16.7038 42.3149 15.8133 43.7265 15.5511C44.275 15.4547 44.7998 15.2533 45.272 14.9578L45.3011 14.9403C45.9364 14.5557 46.5973 13.5918 47.1346 12.6407C47.1649 13.6675 47.75 15.1268 47.75 15.1268C48.5041 17.3158 52.9566 18.2634 53.0056 18.2739C54.5348 18.9546 55.803 20.0677 56.5921 21.6727C56.7242 21.9431 56.8504 22.217 56.9709 22.4944C57.5943 23.9212 58.0685 25.4086 58.3859 26.9329C58.9034 29.4249 57.7075 30.8259 55.1409 30.9518C54.4509 30.9845 53.7586 30.9646 53.0732 30.9297C52.3296 30.8912 51.5941 30.8341 50.8784 30.8061C51.488 30.9903 52.1489 31.2724 52.8389 31.4367C53.0172 31.4798 53.1967 31.516 53.3774 31.5416C53.7982 31.5999 54.2213 31.6698 54.6432 31.7351H58.9092C59.5383 31.5492 60.1269 31.2472 60.6448 30.8446C60.8187 31.116 60.9375 31.419 60.9944 31.7363C61.0597 32.2724 60.752 32.6384 60.0363 32.9251C59.6575 33.0767 59.2542 33.2492 58.8579 33.262C57.5956 33.3051 56.3298 33.2783 55.0663 33.2783C56.9942 33.945 58.9046 34.0231 60.7427 33.1081C62.0248 34.7656 61.6751 35.9312 59.717 36.2645C58.3323 36.4976 56.9009 36.4603 55.4906 36.5431L55.4626 36.606L59.2775 37.014C57.9453 37.5187 56.6282 38.0024 55.1654 37.7133C54.501 37.5816 54.1385 37.3124 53.9893 36.5932C53.5802 34.628 52.4088 33.1594 50.7665 32.0393C51.9647 33.4986 52.8156 35.1141 53.1804 37.1026L48.3025 36.3811C48.9366 33.9182 49.3632 31.5265 48.5986 29.1067C48.9342 31.1173 48.6044 33.051 48.0414 34.994C47.7162 36.1177 47.1801 36.6526 45.9865 36.5093C45.5063 36.4522 45.0063 36.5582 44.5155 36.5897C44.6923 36.712 44.8965 36.7888 45.11 36.8135C48.1347 37.2797 51.171 37.6795 54.1793 38.2588C55.6398 38.5409 57.0105 38.5479 58.3614 37.9872C59.4349 37.542 60.4664 36.9977 61.5178 36.4976C62.0318 37.3963 62.0155 37.4569 61.1541 37.9336C58.3999 39.4605 55.4242 40.2484 52.3249 40.6785C50.0357 40.9944 47.7896 41.5073 45.8676 42.47C48.2069 42.3476 50.6989 42.2299 53.1874 42.0842C54.353 42.0155 55.5664 42.0632 56.676 41.759C58.7927 41.1762 60.8511 40.3802 63.0773 39.6249C63.1706 39.8405 63.3337 40.2193 63.4993 40.5993C61.6623 41.6285 59.872 42.7556 57.9779 43.6647L57.7996 43.7498C53.9788 45.5844 50.1348 47.4214 45.6147 47.0705L45.3396 47.0461C43.7334 46.5798 41.5317 47.1218 41.5317 47.1218C40.5736 47.1113 39.9523 46.7722 39.7542 45.7022C39.3462 43.5016 38.3427 41.5376 37.2715 39.5806C36.5722 38.2984 35.9241 36.8706 35.7341 35.4439C35.7341 35.4276 35.7341 35.4113 35.7283 35.3962C35.353 32.5417 35.3005 29.6452 35.1257 26.9469C35.0021 28.0565 34.7842 29.3946 34.7154 30.742C34.6152 32.7235 34.6933 34.6747 35.1525 36.5454L26.4818 53.8589H42.1529L43.0796 52.0382L45.5774 47.9168C45.9131 47.9366 46.2406 47.8981 46.5821 47.8993C47.0483 47.8993 47.5146 47.9249 47.975 47.9226C48.8888 47.9156 49.8201 47.7967 50.7281 47.7011C51.636 47.6055 52.5219 47.4575 53.4147 47.3118C53.945 47.2256 54.4742 47.1358 54.9964 47.0228C57.9022 47.2139 60.7625 47.0554 63.5843 46.1532C63.8478 46.5122 64.4224 46.736 64.7919 46.9144C65.5493 47.2632 66.3433 47.5263 67.1592 47.6988H67.1522L68.2082 50.4344L69.4169 53.86L82.8851 53.8589ZM40.253 47.1941C40.2027 47.1643 40.1544 47.1312 40.1085 47.095C40.1531 47.1335 40.2002 47.1689 40.2495 47.2011L40.253 47.1941ZM40.5899 47.3375C40.5307 47.3211 40.4727 47.3009 40.4162 47.2769C40.4714 47.3031 40.5282 47.3257 40.5864 47.3445L40.5899 47.3375ZM40.4139 47.2757C40.3596 47.253 40.307 47.2265 40.2565 47.1964C40.3058 47.2276 40.3572 47.2553 40.4104 47.2792L40.4139 47.2757ZM39.8404 46.8176C39.7996 46.7652 39.7612 46.7092 39.7239 46.6498C39.7577 46.7162 39.7938 46.7722 39.8369 46.8246L39.8404 46.8176ZM39.718 46.6428C39.6796 46.5822 39.6411 46.5181 39.6015 46.4493C39.6376 46.5251 39.6772 46.5892 39.7145 46.6498L39.718 46.6428ZM39.6015 46.4411C39.5642 46.3712 39.5269 46.2989 39.4849 46.2208C39.5199 46.3059 39.5607 46.3782 39.5945 46.4481L39.6015 46.4411ZM39.4849 46.208C39.4476 46.1299 39.4092 46.0483 39.3684 45.9609C39.401 46.0577 39.4441 46.1393 39.4768 46.2174L39.4849 46.208ZM39.3684 45.9481C39.3299 45.8619 39.2903 45.7698 39.2518 45.673C39.2798 45.7791 39.3194 45.8712 39.3579 45.9574L39.3684 45.9481ZM39.2448 45.6567C39.2052 45.5596 39.1644 45.4582 39.1224 45.3525C39.1574 45.4652 39.1947 45.5697 39.2343 45.666L39.2448 45.6567ZM38.9756 44.9748C38.9301 44.8583 38.8823 44.7301 38.8334 44.5995C38.8718 44.7394 38.9196 44.8641 38.9651 44.9842L38.9756 44.9748ZM39.8509 46.82C39.8898 46.8704 39.9314 46.9187 39.9756 46.9645C39.9281 46.922 39.8829 46.8768 39.8404 46.8293L39.8509 46.82ZM39.9791 46.968C40.021 47.0096 40.0653 47.0485 40.112 47.0845C40.062 47.0518 40.0141 47.016 39.9686 46.9773L39.9791 46.968ZM41.1249 47.4132C41.5256 47.4207 41.9264 47.4001 42.3243 47.3515C41.9232 47.4037 41.5189 47.4275 41.1144 47.4226L41.1249 47.4132ZM67.2279 24.6181C68.5176 24.0441 69.9121 23.7433 71.3238 23.7346C69.9122 23.7429 68.5177 24.0433 67.2279 24.6169C67.0951 24.6752 66.9575 24.7253 66.8083 24.7789C66.9575 24.7265 67.0951 24.6764 67.2279 24.6181ZM59.4186 16.9171C59.846 15.8005 60.3176 14.506 60.8336 13.0335C60.8577 13.8929 60.9311 14.8133 61.0539 15.7947C61.1401 16.4863 61.2567 17.2451 61.4036 18.0711C61.287 18.0454 61.1704 18.0198 61.0446 17.9965C60.831 17.9537 60.6221 17.89 60.421 17.8065C59.9947 17.7278 59.5636 17.6776 59.1307 17.6561L59.4186 16.9171ZM58.8171 17.655C58.2412 17.6568 57.6673 17.7229 57.1061 17.8519C57.6654 17.7233 58.2374 17.6572 58.8113 17.655H58.8171ZM56.0466 18.1573C55.7995 18.2832 55.6072 18.4347 55.3939 18.5291C55.6013 18.4347 55.7936 18.2832 56.0407 18.1573H56.0466ZM52.6664 17.9592C52.6046 17.9394 52.5499 17.9184 52.4857 17.8974L52.6664 17.9592ZM47.2675 12.8283C47.2675 12.8353 47.2733 12.8435 47.2768 12.8516C47.2803 12.8598 47.2698 12.8353 47.2675 12.8283ZM47.2896 12.8831C47.2896 12.8936 47.2978 12.9041 47.3024 12.9157C47.2978 12.9041 47.2931 12.8947 47.2896 12.8831ZM47.3386 13.0008C47.3934 13.1279 47.4551 13.2747 47.5414 13.4356C47.461 13.2747 47.3934 13.1279 47.3386 13.0008ZM47.8351 13.9776C47.8479 14.0009 47.8619 14.0242 47.8759 14.0475C47.8619 14.0242 47.8479 14.0009 47.8363 13.9776H47.8351ZM48.0752 14.3669C48.0892 14.3902 48.1044 14.4123 48.1195 14.4356C48.1044 14.41 48.0892 14.3902 48.0752 14.3669ZM49.2466 15.8238C49.2664 15.8448 49.2874 15.8646 49.3084 15.8856C49.2874 15.8681 49.2664 15.8483 49.2466 15.8273V15.8238ZM48.5916 15.0837C48.609 15.107 48.6277 15.1292 48.6452 15.1513C48.6289 15.1327 48.6102 15.1093 48.5927 15.0872L48.5916 15.0837ZM48.9482 15.5068C48.9669 15.5289 48.9867 15.5499 49.0053 15.5709C48.9879 15.5534 48.968 15.5324 48.9494 15.5103L48.9482 15.5068ZM49.9902 16.4987C49.9669 16.4801 49.9436 16.4614 49.9215 16.4416C49.9448 16.4649 49.9681 16.4836 49.9914 16.508L49.9902 16.4987ZM59.1831 26.5716C58.8195 24.8058 58.3264 23.097 57.401 21.5596C56.8179 20.5905 56.0723 19.729 55.1969 19.0128C56.3554 18.3989 57.6459 18.0761 58.957 18.0722C59.5363 18.0731 60.1144 18.1254 60.6844 18.2284C60.9443 18.275 61.2042 18.3356 61.4618 18.4067C61.7847 18.4965 62.1041 18.6037 62.4153 18.7238C65.2628 19.8229 66.0962 21.6028 66.0717 24.7953C66.0717 25.1135 65.6055 25.4422 65.3211 25.7405C64.7383 26.3583 64.0797 26.9061 63.5657 27.5787C63.4794 27.6952 63.399 27.8118 63.3198 27.9283C62.9246 28.5111 62.6029 29.151 62.2393 29.7583C60.7194 29.4366 59.492 28.095 59.1831 26.5751V26.5716ZM62.2638 32.8855C62.2648 31.3749 62.6766 29.8931 63.455 28.5985C64.2628 27.26 65.4019 26.1522 66.7624 25.3819C68.1229 24.6116 69.6589 24.2048 71.2224 24.2008C73.3058 24.1863 75.3357 24.8603 76.9966 26.1182C79.0946 27.7115 80.4397 30.1511 80.4397 32.8704C80.4381 34.3369 80.0506 35.7772 79.3161 37.0466C78.5117 38.4368 77.3561 39.5912 75.965 40.3941C74.574 41.1971 72.9963 41.6203 71.3902 41.6215C66.306 41.6192 62.2731 37.7576 62.2638 32.889V32.8855ZM54.3635 46.3362C55.4125 45.8211 56.3112 45.0774 57.6772 45.4294C58.5561 45.6555 59.6132 45.398 60.5422 45.1625C61.2194 44.9912 61.6064 44.4923 61.4339 43.751H61.3383C61.308 44.6065 60.6389 44.8769 59.9093 45.0098L59.7275 45.039C58.9135 45.1481 58.0863 45.1055 57.2879 44.9131L59.2997 43.7475L61.3907 42.54L62.336 43.7475L63.61 45.3793C60.5713 46.4633 57.4919 46.609 54.3635 46.3362ZM64.7604 43.751C63.8874 43.1321 63.1904 42.3745 62.7883 41.5364L63.5051 40.6156C63.7452 40.7508 64.0156 40.8487 64.2184 41.0282C67.6977 44.0587 71.8156 44.5657 75.9231 42.4502C76.0315 42.3943 76.1434 42.3476 76.2798 42.2835C75.9406 43.6368 72.839 45.2581 70.5964 45.4119C69.1262 45.4949 67.6573 45.226 66.3118 44.6275C65.7651 44.3888 65.2442 44.0951 64.7569 43.751H64.7604Z" fill="#A2E00F"/>
<path d="M71.1957 39.2449C74.9605 39.2717 77.8908 36.5291 77.9118 32.9566C77.9339 29.4156 75.0468 26.6031 71.3775 26.5902C67.7561 26.5774 64.7641 29.3538 64.714 32.7748C64.6627 36.268 67.6186 39.2181 71.1957 39.2449ZM71.3997 27.0553C74.1143 27.0635 76.4 29.2501 76.4117 31.847C76.4186 34.5022 74.1295 36.7109 71.3717 36.7074C68.5161 36.7074 66.2817 34.5546 66.284 31.812C66.2817 29.1778 68.5755 27.0471 71.3997 27.0553Z" fill="#A2E00F"/>
<path d="M71.55 33.3704C72.4825 33.3611 73.2925 32.5976 73.2984 31.7188C73.2984 30.7572 72.5303 30.0263 71.5115 30.0263C70.5126 30.0263 69.8203 30.6884 69.8005 31.6582C69.7807 32.6279 70.5453 33.3797 71.55 33.3704Z" fill="#A2E00F"/>
</svg>
